<svg id="visual" viewBox="0 0 900 450" width="900" height="450" xmlns="http://www.w3.org/2000/svg" xmlns:xlink="http://www.w3.org/1999/xlink" version="1.1"><rect x="0" y="0" width="900" height="450" fill="#ffffff"></rect><path d="M0 202L16.7 194.5C33.3 187 66.7 172 100 176.2C133.3 180.3 166.7 203.7 200 224.3C233.3 245 266.7 263 300 256.3C333.3 249.7 366.7 218.3 400 212C433.3 205.7 466.7 224.3 500 233.8C533.3 243.3 566.7 243.7 600 251.5C633.3 259.3 666.7 274.7 700 262.3C733.3 250 766.7 210 800 194.3C833.3 178.7 866.7 187.3 883.3 191.7L900 196L900 451L883.3 451C866.7 451 833.3 451 800 451C766.7 451 733.3 451 700 451C666.7 451 633.3 451 600 451C566.7 451 533.3 451 500 451C466.7 451 433.3 451 400 451C366.7 451 333.3 451 300 451C266.7 451 233.3 451 200 451C166.7 451 133.3 451 100 451C66.7 451 33.3 451 16.7 451L0 451Z" fill="#0066FF" stroke-linecap="round" stroke-linejoin="miter"></path></svg>