<svg xmlns="http://www.w3.org/2000/svg" version="1.1" xmlns:xlink="http://www.w3.org/1999/xlink" xmlns:svgjs="http://svgjs.com/svgjs" width="3840" height="2160" preserveAspectRatio="none" viewBox="0 0 3840 2160"><g mask="url(&quot;#SvgjsMask1101&quot;)" fill="none"><path d="M 0,516 C 153.6,521.2 460.8,595.6 768,542 C 1075.2,488.4 1228.8,232 1536,248 C 1843.2,264 1996.8,583.4 2304,622 C 2611.2,660.6 2764.8,445.8 3072,441 C 3379.2,436.2 3686.4,566.6 3840,598L3840 2160L0 2160z" fill="rgba(0, 153, 255, 1)"></path><path d="M 0,1685 C 256,1646 768,1442.2 1280,1490 C 1792,1537.8 2048,1963.6 2560,1924 C 3072,1884.4 3584,1418.4 3840,1292L3840 2160L0 2160z" fill="rgba(0, 153, 255, 1)"></path></g><defs><mask id="SvgjsMask1101"><rect width="3840" height="2160" fill="#ffffff"></rect></mask></defs></svg>