<svg xmlns="http://www.w3.org/2000/svg" version="1.1" xmlns:xlink="http://www.w3.org/1999/xlink" xmlns:svgjs="http://svgjs.com/svgjs" width="3840" height="2178" preserveAspectRatio="none" viewBox="0 0 3840 2178"><g mask="url(&quot;#SvgjsMask1170&quot;)" fill="none"><path d="M 0,851 C 256,785.2 768,570.8 1280,522 C 1792,473.2 2048,614.4 2560,607 C 3072,599.6 3584,509.4 3840,485L3840 2178L0 2178z" fill="rgba(0, 153, 255, 1)"></path><path d="M 0,1375 C 64,1497 192,1994.8 320,1985 C 448,1975.2 512,1319 640,1326 C 768,1333 832,2033.6 960,2020 C 1088,2006.4 1152,1318.6 1280,1258 C 1408,1197.4 1472,1707.6 1600,1717 C 1728,1726.4 1792,1283.8 1920,1305 C 2048,1326.2 2112,1834 2240,1823 C 2368,1812 2432,1249.2 2560,1250 C 2688,1250.8 2752,1827.4 2880,1827 C 3008,1826.6 3072,1249 3200,1248 C 3328,1247 3392,1786.8 3520,1822 C 3648,1857.2 3776,1503.6 3840,1424L3840 2178L0 2178z" fill="rgba(0, 153, 255, 1)"></path></g><defs><mask id="SvgjsMask1170"><rect width="3840" height="2178" fill="#ffffff"></rect></mask></defs></svg>